<svg width="152" height="58" viewBox="0 0 152 58" fill="none" xmlns="http://www.w3.org/2000/svg">
<g clip-path="url(#clip0_178_151)" filter="url(#filter0_d_178_151)">
<path d="M35.2492 46.8859C35.2616 47.0563 35.2333 47.2272 35.1667 47.3846C35.1 47.5419 34.9969 47.6811 34.8659 47.7907C34.5889 47.9985 34.2483 48.1035 33.9024 48.0877H33.3291V49.3827H32.5625V45.7014H33.9438C34.2822 45.686 34.6151 45.7913 34.8831 45.9984C35.0084 46.1082 35.1066 46.2454 35.1701 46.3993C35.2336 46.5532 35.2607 46.7198 35.2492 46.8859ZM34.4791 46.8859C34.4776 46.7901 34.4462 46.6971 34.3893 46.62C34.3312 46.5451 34.2517 46.4897 34.1614 46.4612C34.0632 46.4298 33.9606 46.4146 33.8575 46.4163H33.3291V47.3763H33.8679C34.0203 47.3818 34.1709 47.3409 34.2995 47.2589C34.3582 47.2199 34.4056 47.1662 34.4371 47.1032C34.4686 47.0402 34.4831 46.9701 34.4791 46.8997V46.8859Z" fill="white"/>
<path d="M38.1359 47.9219L38.9164 49.3896H38.0876L37.3969 48.0635H36.8444V49.3826H36.0674V45.7014H37.5247C37.8562 45.6893 38.1818 45.7917 38.4467 45.9915C38.573 46.0986 38.6728 46.2336 38.7381 46.3858C38.8034 46.538 38.8325 46.7033 38.8231 46.8686C38.84 47.0953 38.7818 47.3211 38.6576 47.5115C38.5334 47.7018 38.3501 47.846 38.1359 47.9219ZM37.4453 46.4231H36.8271V47.359H37.4625C37.611 47.3631 37.757 47.3209 37.8804 47.2381C37.9306 47.1957 37.9709 47.1428 37.9985 47.0831C38.0262 47.0235 38.0405 46.9585 38.0405 46.8928C38.0405 46.8271 38.0262 46.7621 37.9985 46.7025C37.9709 46.6428 37.9306 46.5899 37.8804 46.5475C37.7553 46.4653 37.6087 46.422 37.4591 46.4231H37.4453Z" fill="white"/>
<path d="M39.4726 47.5489C39.4736 47.0416 39.6747 46.5552 40.0321 46.1952C40.2118 46.024 40.4213 45.8871 40.6502 45.7911C40.8861 45.6957 41.1382 45.6464 41.3927 45.6461C41.6497 45.6434 41.9046 45.6928 42.142 45.7911C42.3668 45.886 42.5727 46.0205 42.7498 46.1883C42.923 46.3598 43.0603 46.5641 43.1539 46.7892C43.2517 47.0245 43.3022 47.2768 43.3023 47.5316C43.303 47.788 43.2513 48.0418 43.1504 48.2775C43.0537 48.5056 42.9142 48.7131 42.7395 48.8888C42.5653 49.0636 42.3573 49.201 42.1282 49.2928C41.891 49.3927 41.6362 49.4444 41.3788 49.4448C41.1278 49.4499 40.8783 49.4038 40.6455 49.3094C40.4128 49.215 40.2017 49.0742 40.0251 48.8957C39.8453 48.7213 39.7034 48.5117 39.6084 48.2799C39.5133 48.0482 39.4671 47.7993 39.4726 47.5489ZM40.4016 46.9618C40.3063 47.141 40.2565 47.3408 40.2565 47.5437C40.2565 47.7466 40.3063 47.9464 40.4016 48.1256C40.5023 48.2982 40.6433 48.444 40.8125 48.5503C40.987 48.6538 41.1864 48.7075 41.3892 48.7057C41.59 48.709 41.7876 48.6551 41.959 48.5503C42.1332 48.4466 42.2769 48.2987 42.3757 48.1217C42.4746 47.9446 42.525 47.7447 42.5219 47.542C42.5247 47.3895 42.4954 47.2382 42.4359 47.0978C42.3764 46.9574 42.288 46.831 42.1766 46.727C42.0744 46.616 41.9498 46.5278 41.8112 46.4683C41.6725 46.4088 41.5228 46.3793 41.3719 46.3817C41.1691 46.3799 40.9697 46.4336 40.7952 46.5371C40.6278 46.6417 40.4918 46.7896 40.4016 46.9653V46.9618Z" fill="white"/>
<path d="M46.8659 46.8859C46.8783 47.0563 46.85 47.2272 46.7834 47.3846C46.7167 47.5419 46.6136 47.6811 46.4826 47.7907C46.2053 47.998 45.8649 48.1029 45.5191 48.0877H44.9424V49.3827H44.1792V45.7014H45.5605C45.8989 45.686 46.2318 45.7913 46.4998 45.9984C46.6251 46.1082 46.7233 46.2454 46.7868 46.3993C46.8503 46.5532 46.8774 46.7198 46.8659 46.8859ZM46.0958 46.8859C46.0986 46.7894 46.0698 46.6946 46.0136 46.616C45.9575 46.5375 45.8772 46.4794 45.785 46.4508C45.6868 46.4194 45.5842 46.4043 45.4811 46.4059H44.9424V47.3659H45.4846C45.637 47.3714 45.7876 47.3305 45.9162 47.2485C45.9733 47.2104 46.0198 47.1584 46.0512 47.0974C46.0826 47.0364 46.098 46.9683 46.0958 46.8997V46.8859Z" fill="white"/>
<path d="M50.1121 49.3824H47.6948V45.7012H50.1121V46.4126H48.4511V47.1688H49.9291V47.8802H48.4407V48.6917H50.1156L50.1121 49.3824Z" fill="white"/>
<path d="M53.1202 47.9217L53.9006 49.3825H53.0718L52.3811 48.0564H51.8321V49.3825H51.0654V45.7013H52.5227C52.8544 45.6885 53.1802 45.791 53.4448 45.9913C53.5715 46.0983 53.6718 46.2331 53.7377 46.3853C53.8036 46.5375 53.8333 46.7029 53.8246 46.8685C53.8403 47.0972 53.7797 47.3248 53.6522 47.5154C53.5247 47.706 53.3376 47.8489 53.1202 47.9217ZM52.4295 46.423H51.7975V47.3588H52.4364C52.5837 47.3624 52.7285 47.3202 52.8508 47.238C52.9021 47.1962 52.9434 47.1435 52.9718 47.0838C53.0001 47.0241 53.0149 46.9588 53.0149 46.8926C53.0149 46.8265 53.0001 46.7612 52.9718 46.7015C52.9434 46.6418 52.9021 46.5891 52.8508 46.5473C52.7297 46.4677 52.5882 46.4245 52.4433 46.423H52.4295Z" fill="white"/>
<path d="M56.1002 46.4402V49.3825H55.337V46.4333H54.2319V45.6943H57.2018V46.4333L56.1002 46.4402Z" fill="white"/>
<path d="M59.7296 47.8975V49.3824H58.9665V47.932L57.6162 45.7012H58.4968L59.3463 47.1792L60.2131 45.7012H61.0799L59.7296 47.8975Z" fill="white"/>
<path d="M66.5947 49.3824V46.8684L65.5587 49.3824H65.0476L64.0116 46.8822V49.3824H63.2622V45.7012H64.2982L65.3169 48.153L66.3115 45.7012H67.3682V49.3824H66.5947Z" fill="white"/>
<path d="M70.9702 49.3825L70.6732 48.5917H69.0881L68.7946 49.3825H68.0142L69.4266 45.6943H70.3417L71.7576 49.3825H70.9702ZM69.8755 46.4333L69.3402 47.8837H70.4108L69.8755 46.4333Z" fill="white"/>
<path d="M74.7932 49.3824L73.184 46.8477V49.3824H72.4312V45.7012H73.3152L74.9037 48.1945V45.7012H75.66V49.3824H74.7932Z" fill="white"/>
<path d="M79.2822 49.3825L78.9887 48.5917H77.4002L77.1066 49.3825H76.3262L77.7386 45.6943H78.6537L80.0696 49.3825H79.2822ZM78.1875 46.4333L77.6522 47.8837H78.7228L78.1875 46.4333Z" fill="white"/>
<path d="M82.0246 47.4072H83.9447V47.6938C83.965 48.0937 83.8426 48.4878 83.5993 48.8058C83.4909 48.942 83.3601 49.0587 83.2126 49.1511C82.9159 49.3473 82.5666 49.4484 82.2111 49.4412C81.9433 49.4439 81.6778 49.3922 81.4306 49.2892C81.2033 49.2 80.9982 49.0621 80.8298 48.8852C80.6554 48.7093 80.5183 48.4999 80.4269 48.2696C80.3356 48.0393 80.2917 47.793 80.298 47.5453C80.2974 47.2093 80.3859 46.8792 80.5546 46.5886C80.7232 46.298 80.9659 46.0573 81.258 45.8912C81.5504 45.7249 81.8816 45.6391 82.218 45.6425C82.6184 45.6263 83.0122 45.7483 83.3334 45.9879C83.5956 46.1793 83.7865 46.4527 83.8756 46.7649L83.1297 46.9928C83.0787 46.8138 82.9678 46.6577 82.8154 46.5508C82.6383 46.4279 82.4265 46.3649 82.2111 46.3712C82.0098 46.3695 81.8118 46.422 81.6378 46.5231C81.4644 46.6212 81.322 46.766 81.2269 46.941C81.1229 47.1228 81.0692 47.329 81.0715 47.5384C81.0686 47.7444 81.1185 47.9477 81.2165 48.1289C81.3127 48.3085 81.4562 48.4582 81.6316 48.5617C81.807 48.6652 82.0074 48.7186 82.2111 48.716C82.4315 48.7218 82.6488 48.663 82.8361 48.5468C82.9967 48.4415 83.1125 48.2803 83.1608 48.0944H82.0384L82.0246 47.4072Z" fill="white"/>
<path d="M87.2249 49.3824H84.8076V45.7012H87.2249V46.4126H85.5639V47.1688H87.0523V47.8802H85.5639V48.6917H87.2249V49.3824Z" fill="white"/>
<path d="M91.5177 49.3824V46.8684L90.4817 49.3824H89.9533L88.9173 46.8822V49.3824H88.168V45.7012H89.204L90.24 48.153L91.2345 45.7012H92.2912V49.3824H91.5177Z" fill="white"/>
<path d="M95.7996 49.3824H93.3823V45.7012H95.7996V46.4126H94.1317V47.1688H95.6201V47.8802H94.1317V48.6917H95.8066L95.7996 49.3824Z" fill="white"/>
<path d="M99.1008 49.3824L97.4916 46.8477V49.3824H96.7388V45.7012H97.6263L99.2148 48.1945V45.7012H99.9676V49.3824H99.1008Z" fill="white"/>
<path d="M102.613 46.4402V49.3825H101.846V46.4333H100.745V45.6943H103.714V46.4333L102.613 46.4402Z" fill="white"/>
<path d="M107.53 47.4073H109.454V47.694C109.473 48.0937 109.351 48.4873 109.109 48.8059C108.998 48.9414 108.866 49.0581 108.718 49.1513C108.422 49.3474 108.072 49.4486 107.717 49.4413C107.449 49.4437 107.184 49.3921 106.937 49.2894C106.709 49.2001 106.504 49.0622 106.336 48.8854C106.161 48.7094 106.024 48.5 105.933 48.2698C105.841 48.0395 105.798 47.7931 105.804 47.5455C105.804 47.2055 105.894 46.8718 106.066 46.5785C106.237 46.2909 106.48 46.0532 106.772 45.889C107.063 45.7248 107.393 45.6398 107.727 45.6427C108.127 45.6256 108.52 45.7476 108.839 45.988C109.102 46.1794 109.292 46.4529 109.381 46.765L108.636 46.9929C108.586 46.8141 108.476 46.6578 108.325 46.5509C108.146 46.429 107.933 46.3662 107.717 46.3713C107.516 46.3697 107.318 46.4222 107.144 46.5233C106.971 46.6214 106.83 46.7663 106.736 46.9411C106.63 47.122 106.575 47.3286 106.577 47.5386C106.574 47.7446 106.624 47.9479 106.722 48.1291C106.819 48.3086 106.962 48.4583 107.137 48.5619C107.313 48.6654 107.513 48.7188 107.717 48.7162C107.937 48.722 108.155 48.6632 108.342 48.5469C108.504 48.4429 108.62 48.2811 108.667 48.0946H107.53V47.4073Z" fill="white"/>
<path d="M112.372 47.9218L113.149 49.3895H112.32L111.629 48.0634H111.053V49.3826H110.29V45.7013H111.743C112.075 45.6881 112.401 45.7906 112.665 45.9914C112.792 46.0984 112.892 46.2332 112.958 46.3854C113.024 46.5376 113.054 46.703 113.045 46.8686C113.063 47.0935 113.007 47.3181 112.885 47.5082C112.764 47.6983 112.584 47.8436 112.372 47.9218ZM111.681 46.4231H111.053V47.3589H111.692C111.839 47.364 111.984 47.3216 112.106 47.2381C112.162 47.2007 112.208 47.1491 112.239 47.0885C112.269 47.0279 112.283 46.9604 112.279 46.8927C112.282 46.8255 112.269 46.7585 112.239 46.698C112.209 46.6375 112.165 46.5857 112.109 46.5474C111.985 46.4669 111.84 46.4238 111.692 46.4231H111.681Z" fill="white"/>
<path d="M113.705 47.5489C113.705 47.2926 113.757 47.039 113.857 46.803C113.951 46.5743 114.091 46.3674 114.268 46.1952C114.632 45.8405 115.121 45.6433 115.629 45.6461C115.885 45.6434 116.138 45.6928 116.375 45.7911C116.6 45.8852 116.806 46.0198 116.982 46.1883C117.155 46.3598 117.293 46.5641 117.386 46.7892C117.533 47.1408 117.572 47.5281 117.498 47.9019C117.424 48.2757 117.241 48.6192 116.972 48.8888C116.798 49.0643 116.59 49.2019 116.361 49.2928C116.124 49.3931 115.869 49.4448 115.611 49.4448C115.361 49.448 115.113 49.4012 114.88 49.3072C114.648 49.2132 114.437 49.0738 114.26 48.8973C114.082 48.7207 113.942 48.5105 113.847 48.279C113.751 48.0475 113.703 47.7992 113.705 47.5489ZM114.638 46.9618C114.54 47.1403 114.489 47.3404 114.489 47.5437C114.489 47.747 114.54 47.9471 114.638 48.1256C114.737 48.2981 114.877 48.4438 115.045 48.5503C115.22 48.6534 115.419 48.7072 115.622 48.7057C115.824 48.7089 116.022 48.655 116.195 48.5503C116.367 48.4469 116.51 48.3006 116.609 48.1256C116.706 47.9464 116.756 47.7456 116.754 47.542C116.756 47.3916 116.728 47.2423 116.672 47.1027C116.616 46.9631 116.533 46.8359 116.428 46.7284C116.323 46.621 116.198 46.5353 116.059 46.4764C115.921 46.4175 115.772 46.3865 115.622 46.3851C115.419 46.3837 115.22 46.4374 115.045 46.5405C114.873 46.642 114.732 46.7889 114.638 46.9653V46.9618Z" fill="white"/>
<path d="M120.584 45.7012H121.337V47.9009C121.362 48.3124 121.226 48.7175 120.957 49.0302C120.645 49.294 120.25 49.4388 119.842 49.4388C119.433 49.4388 119.038 49.294 118.726 49.0302C118.48 48.7204 118.357 48.3305 118.381 47.9355V45.7115H119.144V47.9217C119.137 48.0287 119.151 48.1362 119.186 48.2376C119.221 48.339 119.276 48.4324 119.348 48.5122C119.414 48.5808 119.494 48.6345 119.583 48.6697C119.672 48.7048 119.767 48.7206 119.862 48.7159C119.961 48.7218 120.06 48.7063 120.153 48.6706C120.245 48.6348 120.328 48.5796 120.398 48.5087C120.531 48.3485 120.6 48.144 120.591 47.9355L120.584 45.7012Z" fill="white"/>
<path d="M125.09 46.8858C125.103 47.0565 125.075 47.2278 125.007 47.3852C124.94 47.5427 124.836 47.6817 124.704 47.7905C124.428 47.9978 124.088 48.1028 123.744 48.0875H123.167V49.3825H122.404V45.7013H123.768C124.107 45.6853 124.442 45.7906 124.711 45.9983C124.838 46.1066 124.939 46.2432 125.005 46.3973C125.071 46.5513 125.1 46.7185 125.09 46.8858ZM124.32 46.8858C124.324 46.7887 124.294 46.6933 124.238 46.6145C124.181 46.5358 124.099 46.4781 124.006 46.4507C123.908 46.4188 123.805 46.4036 123.702 46.4058H123.167V47.3658H123.709C123.862 47.3706 124.012 47.3298 124.141 47.2484C124.198 47.2103 124.244 47.1583 124.276 47.0972C124.307 47.0362 124.323 46.9682 124.32 46.8996V46.8858Z" fill="white"/>
<path d="M26.6676 36.4601C25.1504 36.7843 23.6019 36.9395 22.0505 36.9228C16.4112 36.9228 13.027 35.2307 9.38373 31.7946C5.79573 28.4104 4 23.8969 4 18.3025C4 12.8186 5.79573 8.40875 9.48733 5.0763C13.1271 1.79564 16.5114 0.103516 21.9987 0.103516C27.5378 0.103516 30.9359 1.74384 34.6655 5.0245C38.3571 8.3086 40.1908 12.8186 40.1908 18.4614C40.1908 23.9487 38.3951 28.4104 34.8589 31.7946C32.9077 33.6905 30.9601 35.0235 28.7051 35.8454C28.7189 35.8454 27.6 36.2598 26.6676 36.4601ZM31.2812 31.3319C33.7504 28.2792 34.6862 23.776 34.6862 18.5132C34.6862 13.0258 33.6502 8.7679 31.333 5.84639C29.0159 2.92488 26.2739 0.852886 21.9573 0.997926C18.5972 1.11534 15.6342 2.87308 13.3792 5.74279C11.1242 8.6125 9.73597 12.8704 9.73597 18.4614C9.73597 24.1524 11.1173 28.476 13.3861 31.3319C14.8711 33.1794 15.8345 34.319 18.2208 35.2687C19.5063 35.7756 20.8795 36.0229 22.2612 35.9962C23.6428 35.9695 25.0054 35.6694 26.2705 35.1133C27.2246 34.6864 28.1291 34.156 28.9675 33.5317C29.8436 32.9173 30.6234 32.1759 31.2812 31.3319Z" fill="white"/>
<path d="M24.8097 36.7364C25.3944 36.8377 26.9507 37.3845 29.4786 38.3767C30.2903 38.7219 31.1593 38.9128 32.0409 38.9396C32.8579 38.9468 33.6642 38.7535 34.3892 38.3767C34.6485 38.2351 34.8957 38.0722 35.1282 37.8898C35.2698 37.7793 35.3837 37.5928 35.5633 37.5445C35.7429 37.4961 35.995 37.6584 35.9294 37.8622C35.7567 38.272 35.0212 38.8705 33.7227 39.6579C32.125 40.6156 30.6205 41.0945 29.2092 41.0945C27.8762 41.0945 26.0989 40.4959 23.8773 39.2987C23.0234 38.7795 22.0539 38.4804 21.0559 38.4285C20.4286 38.431 19.8117 38.5888 19.2602 38.8878C19.0599 38.9776 18.8596 39.0777 18.6662 39.1882C18.4728 39.2987 18.2691 39.3816 18.0999 39.2538C17.8685 39.0743 17.9617 38.8084 18.1275 38.6392C18.3209 38.4506 18.5288 38.2774 18.7491 38.1212C19.3432 37.6673 19.9819 37.2751 20.6553 36.9505C20.6553 36.9505 22.7929 36.101 24.8097 36.7364Z" fill="white"/>
<path d="M77.8179 0H82.9979V36.9229H77.8179V0Z" fill="white"/>
<path d="M114.993 0H116.53V36.9229H115.494L89.3934 2.92151V36.9229H88.2124V0H93.7377L114.979 28.1204L114.993 0Z" fill="white"/>
<path d="M146.463 0H148.003V36.9229H146.967L120.864 2.92151V36.9229H119.686V0H125.211L146.453 28.1204L146.463 0Z" fill="white"/>
<path d="M71.8925 0V21.6281C71.8925 24.1606 71.691 26.1336 71.2881 27.5471C70.7153 29.5496 69.6572 31.3799 68.2078 32.8756C66.8877 34.342 65.2136 35.4454 63.3455 36.0803C61.7094 36.7002 59.9658 36.9867 58.2173 36.9229C56.2676 36.9325 54.3293 36.6258 52.4779 36.0147C50.3544 35.3326 48.4269 34.1479 46.8593 32.5614C44.2441 29.8357 42.8085 26.1891 42.8638 22.4121V0H48.0991V22.5329C48.0747 24.4131 48.3498 26.2852 48.9141 28.0789C49.6345 30.2444 50.9819 32.147 52.7852 33.5456C54.4843 34.8993 56.6184 35.3344 58.7698 35.3344C60.2722 35.3835 61.7676 35.1104 63.1556 34.5332C64.6642 33.9375 66.02 33.0112 67.1234 31.8223C69.9068 28.8249 70.3592 25.4579 70.3385 21.5694V0H71.8925Z" fill="white"/>
</g>
<defs>
<filter id="filter0_d_178_151" x="0" y="0" width="152" height="57.4446" filterUnits="userSpaceOnUse" color-interpolation-filters="sRGB">
<feFlood flood-opacity="0" result="BackgroundImageFix"/>
<feColorMatrix in="SourceAlpha" type="matrix" values="0 0 0 0 0 0 0 0 0 0 0 0 0 0 0 0 0 0 127 0" result="hardAlpha"/>
<feOffset dy="4"/>
<feGaussianBlur stdDeviation="2"/>
<feComposite in2="hardAlpha" operator="out"/>
<feColorMatrix type="matrix" values="0 0 0 0 0 0 0 0 0 0 0 0 0 0 0 0 0 0 0.25 0"/>
<feBlend mode="normal" in2="BackgroundImageFix" result="effect1_dropShadow_178_151"/>
<feBlend mode="normal" in="SourceGraphic" in2="effect1_dropShadow_178_151" result="shape"/>
</filter>
<clipPath id="clip0_178_151">
<rect width="144" height="49.4446" fill="white" transform="translate(4)"/>
</clipPath>
</defs>
</svg>
